<?xml version="1.0" encoding="utf-8"?>
<!-- Generator: Adobe Illustrator 18.1.0, SVG Export Plug-In . SVG Version: 6.00 Build 0)  -->
<svg version="1.1" id="Layer_1" xmlns="http://www.w3.org/2000/svg" xmlns:xlink="http://www.w3.org/1999/xlink" x="0px" y="0px"
     viewBox="0 0 792 612" enable-background="new 0 0 792 612" xml:space="preserve">
<g>
    <linearGradient id="SVGID_1_" gradientUnits="userSpaceOnUse" x1="293.4264" y1="313.4543" x2="293.7567" y2="294.5293">
        <stop  offset="0" style="stop-color:#007EC5"/>
        <stop  offset="1" style="stop-color:#00C0ED"/>
    </linearGradient>
    <path fill="url(#SVGID_1_)" d="M308,377.4c1.7,0,3.2-0.3,4.3-1c1.1-0.6,2-1.4,2.6-2.3c0.6-0.9,1.1-1.9,1.3-3c0.2-1.1,0.3-2.1,0.3-3
        c0-0.9-0.1-1.9-0.3-3c-0.2-1.1-0.7-2.1-1.3-3c-0.6-0.9-1.5-1.7-2.6-2.3c-1.1-0.6-2.6-1-4.3-1h-31c-1.8,0-3.2,0.3-4.3,1
        c-1.1,0.6-2,1.4-2.6,2.3c-0.6,0.9-1.1,1.9-1.3,3c-0.2,1.1-0.3,2.1-0.3,3c0,0.9,0.1,1.9,0.3,3c0.2,1.1,0.7,2.1,1.3,3
        c0.6,0.9,1.5,1.7,2.6,2.3c1.1,0.6,2.5,1,4.3,1H308L308,377.4z M323.7,368c0,1.9-0.3,3.9-1,5.9c-0.6,2-1.6,3.8-2.8,5.4
        c-1.2,1.6-2.7,2.9-4.5,4c-1.7,1-3.7,1.5-5.9,1.5h-35c-2.1-0.1-4-0.7-5.6-1.7c-1.6-1.1-3-2.4-4.2-4c-1.2-1.6-2-3.4-2.6-5.3
        c-0.6-1.9-0.9-3.9-0.9-5.8c0-1.9,0.3-3.9,1-5.9c0.6-2,1.6-3.8,2.8-5.4c1.2-1.6,2.7-2.9,4.5-4c1.7-1,3.7-1.5,5.9-1.5h35
        c2.1,0.1,4,0.7,5.6,1.7c1.6,1,3,2.4,4.2,4c1.2,1.6,2,3.4,2.6,5.3C323.4,364.2,323.7,366.1,323.7,368z"/>
    <linearGradient id="SVGID_2_" gradientUnits="userSpaceOnUse" x1="364.0253" y1="215.4108" x2="366.8113" y2="55.7995">
        <stop  offset="0" style="stop-color:#007EC5"/>
        <stop  offset="1" style="stop-color:#00C0ED"/>
    </linearGradient>
    <path fill="url(#SVGID_2_)" d="M383.7,368c0-0.9-0.1-1.9-0.3-3c-0.2-1.1-0.7-2.1-1.3-3c-0.6-0.9-1.5-1.7-2.6-2.3s-2.6-1-4.3-1
        h-27.7c-1.8,0-3.2,0.3-4.3,1c-1.1,0.6-2,1.4-2.6,2.3c-0.6,0.9-1.1,1.9-1.3,3c-0.2,1.1-0.3,2.1-0.3,3v13.1c0,1-0.4,1.9-1.1,2.6
        c-0.7,0.7-1.6,1.1-2.6,1.1c-1,0-1.9-0.4-2.6-1.1c-0.7-0.7-1.1-1.6-1.1-2.6V368c0-1.9,0.3-3.9,1-5.9c0.6-2,1.6-3.8,2.8-5.4
        c1.2-1.6,2.7-2.9,4.5-4c1.7-1,3.7-1.5,5.9-1.5h32.2c2.1,0.1,4,0.7,5.6,1.7c1.6,1,3,2.4,4.2,4c1.2,1.6,2,3.4,2.6,5.3
        c0.6,1.9,0.9,3.9,0.9,5.8v13.1c0,1-0.4,1.9-1.1,2.6c-0.7,0.7-1.6,1.1-2.6,1.1c-1,0-1.9-0.4-2.6-1.1c-0.7-0.7-1.1-1.6-1.1-2.6V368z"
        />
    <linearGradient id="SVGID_3_" gradientUnits="userSpaceOnUse" x1="429.6967" y1="386.7026" x2="430.0228" y2="368.0231">
        <stop  offset="0" style="stop-color:#007EC5"/>
        <stop  offset="1" style="stop-color:#00C0ED"/>
    </linearGradient>
    <path fill="url(#SVGID_3_)" d="M445.5,377.4c1.7,0,3.2-0.3,4.3-1c1.1-0.6,2-1.4,2.6-2.3c0.6-0.9,1.1-1.9,1.3-3
        c0.2-1.1,0.3-2.1,0.3-3c0-0.9-0.1-1.9-0.3-3c-0.2-1.1-0.7-2.1-1.3-3c-0.6-0.9-1.5-1.7-2.6-2.3c-1.1-0.6-2.6-1-4.3-1h-31
        c-1.8,0-3.2,0.3-4.3,1c-1.1,0.6-2,1.4-2.6,2.3c-0.6,0.9-1.1,1.9-1.3,3c-0.2,1.1-0.3,2.1-0.3,3c0,0.9,0.1,1.9,0.3,3
        c0.2,1.1,0.7,2.1,1.3,3c0.6,0.9,1.5,1.7,2.6,2.3c1.1,0.6,2.5,1,4.3,1H445.5L445.5,377.4z M461.3,368c0,1.9-0.3,3.9-1,5.9
        c-0.6,2-1.6,3.8-2.8,5.4c-1.2,1.6-2.7,2.9-4.5,4c-1.7,1-3.7,1.5-5.9,1.5h-35c-2.1-0.1-4-0.7-5.6-1.7c-1.6-1.1-3-2.4-4.2-4
        c-1.2-1.6-2-3.4-2.6-5.3c-0.6-1.9-0.9-3.9-0.9-5.8c0-1.9,0.3-3.9,1-5.9c0.6-2,1.6-3.8,2.8-5.4c1.2-1.6,2.7-2.9,4.5-4
        c1.7-1,3.7-1.5,5.9-1.5h35c2.1,0.1,4,0.7,5.6,1.7c1.6,1,3,2.4,4.2,4c1.2,1.6,2,3.4,2.6,5.3C461,364.2,461.3,366.1,461.3,368z"/>
    <linearGradient id="SVGID_4_" gradientUnits="userSpaceOnUse" x1="499.3867" y1="424.4887" x2="499.7166" y2="405.5856">
        <stop  offset="0" style="stop-color:#007EC5"/>
        <stop  offset="1" style="stop-color:#00C0ED"/>
    </linearGradient>
    <path fill="url(#SVGID_4_)" d="M479.2,371.7c-1.4,0-2.8-0.3-4-0.8c-1.2-0.5-2.3-1.3-3.2-2.2c-0.9-0.9-1.7-2-2.2-3.2
        c-0.5-1.2-0.8-2.6-0.8-4c0-1.4,0.3-2.8,0.8-4c0.5-1.2,1.3-2.3,2.2-3.2c0.9-0.9,2-1.7,3.2-2.2c1.2-0.5,2.6-0.8,4-0.8h46.6
        c1,0,1.9,0.4,2.6,1.1c0.7,0.7,1.1,1.6,1.1,2.6c0,1-0.4,1.9-1.1,2.6c-0.7,0.7-1.6,1.1-2.6,1.1H479c-0.8,0-1.4,0.3-2,0.8
        c-0.6,0.5-0.9,1.2-0.9,2c0,0.8,0.3,1.4,0.9,2c0.6,0.6,1.3,0.8,2,0.8h42.5c1.4,0,2.8,0.3,4,0.8c1.3,0.5,2.3,1.3,3.3,2.2
        c0.9,0.9,1.7,2,2.2,3.3c0.5,1.3,0.8,2.6,0.8,4c0,1.4-0.3,2.8-0.8,4c-0.5,1.2-1.3,2.3-2.2,3.2c-0.9,0.9-2,1.6-3.3,2.2
        c-1.3,0.5-2.6,0.8-4,0.8H475c-1,0-1.9-0.4-2.6-1.1c-0.7-0.7-1.1-1.6-1.1-2.6c0-1,0.4-1.9,1.1-2.6c0.7-0.7,1.6-1.1,2.6-1.1h46.8
        c0.8,0,1.4-0.3,2-0.8c0.6-0.5,0.8-1.2,0.8-2c0-0.8-0.3-1.5-0.8-2.1c-0.6-0.6-1.2-0.8-2-0.8H479.2z"/>
</g>
<g>
    <g>
        <path fill="#007EC5" d="M263,404.8c-1.2-1.2-1.8-2.7-1.8-4.6c0-1.9,0.6-3.4,1.8-4.6c1.2-1.2,2.7-1.8,4.5-1.8
            c1.8,0,3.3,0.6,4.5,1.8c1.2,1.2,1.8,2.7,1.8,4.6c0,1.9-0.6,3.4-1.8,4.6c-1.2,1.2-2.7,1.8-4.5,1.8C265.6,406.6,264.1,406,263,404.8
            L263,404.8z M263.7,396.4c-0.9,1-1.4,2.3-1.4,3.8c0,1.5,0.5,2.8,1.4,3.8c0.9,1,2.2,1.5,3.7,1.5c1.6,0,2.8-0.5,3.7-1.5
            c0.9-1,1.4-2.3,1.4-3.8c0-1.5-0.5-2.8-1.4-3.8c-0.9-1-2.2-1.5-3.7-1.5C265.9,394.9,264.7,395.4,263.7,396.4z"/>
        <path fill="#007EC5" d="M276.5,410.2v-11.8h1v1.4h0c0.3-0.5,0.7-0.9,1.3-1.2c0.6-0.3,1.2-0.4,1.8-0.4c1.2,0,2.2,0.4,3,1.2
            c0.8,0.8,1.2,1.8,1.2,3c0,1.2-0.4,2.2-1.2,3c-0.8,0.8-1.8,1.2-3,1.2c-0.6,0-1.3-0.1-1.8-0.4c-0.6-0.3-1-0.7-1.3-1.2h0v5.3H276.5
            L276.5,410.2z M278.4,400c-0.6,0.6-1,1.4-1,2.3c0,0.9,0.3,1.6,1,2.3c0.6,0.6,1.4,0.9,2.3,0.9c0.9,0,1.7-0.3,2.3-0.9
            c0.6-0.6,0.9-1.4,0.9-2.3c0-0.9-0.3-1.7-0.9-2.3c-0.6-0.6-1.3-0.9-2.3-0.9C279.8,399.1,279,399.4,278.4,400z"/>
        <path fill="#007EC5" d="M294.1,404.1l0.8,0.6c-0.8,1.1-1.9,1.7-3.4,1.7c-1.2,0-2.2-0.4-2.9-1.2c-0.7-0.8-1.1-1.8-1.1-3
            c0-1.2,0.4-2.2,1.1-3c0.7-0.8,1.7-1.2,2.8-1.2c1.2,0,2.1,0.4,2.7,1.1c0.7,0.7,1,1.6,1,2.6v0.7h-6.6c0,0.2,0,0.4,0.1,0.6
            c0.1,0.2,0.1,0.5,0.3,0.8c0.1,0.3,0.3,0.5,0.5,0.8c0.2,0.2,0.5,0.4,0.9,0.6c0.4,0.2,0.8,0.2,1.2,0.2c0.5,0,1-0.1,1.5-0.4
            C293.5,404.9,293.8,404.6,294.1,404.1L294.1,404.1z M288.5,401.6h5.6c0-0.7-0.3-1.3-0.8-1.8c-0.5-0.5-1.2-0.8-1.9-0.8
            c-0.5,0-1,0.1-1.4,0.3c-0.4,0.2-0.7,0.5-0.9,0.8c-0.2,0.3-0.3,0.6-0.4,0.8C288.5,401.3,288.5,401.5,288.5,401.6z"/>
        <path fill="#007EC5" d="M298.1,406.3v-5.7c0-0.2,0-0.6,0-1.2c0-0.6,0-0.9,0-1.1h1c0,0.8,0,1.3,0.1,1.4h0.1
            c0.2-0.5,0.6-0.8,1.1-1.1c0.5-0.3,1-0.5,1.7-0.5c2,0,3,1.1,3,3.4v4.7h-1v-4.7c0-1.7-0.7-2.5-2-2.5c-0.8,0-1.5,0.3-2,0.8
            c-0.5,0.6-0.8,1.4-0.8,2.4v3.9H298.1z"/>
    </g>
    <g>
        <polygon fill="#007EC5" points="313.1,406.3 313.1,394.2 314.5,394.2 321.9,404.8 321.9,404.8 321.9,394.2 323.1,394.2
            323.1,406.3 321.6,406.3 314.2,395.7 314.2,395.7 314.2,406.3 "/>
        <path fill="#007EC5" d="M333,404.1l0.8,0.6c-0.8,1.1-1.9,1.7-3.4,1.7c-1.2,0-2.2-0.4-2.9-1.2c-0.7-0.8-1.1-1.8-1.1-3
            c0-1.2,0.4-2.2,1.1-3c0.7-0.8,1.7-1.2,2.8-1.2c1.2,0,2.1,0.4,2.7,1.1c0.7,0.7,1,1.6,1,2.6v0.7h-6.6c0,0.2,0,0.4,0.1,0.6
            c0.1,0.2,0.1,0.5,0.3,0.8c0.1,0.3,0.3,0.5,0.5,0.8c0.2,0.2,0.5,0.4,0.9,0.6c0.4,0.2,0.8,0.2,1.2,0.2c0.5,0,1-0.1,1.5-0.4
            C332.4,404.9,332.8,404.6,333,404.1L333,404.1z M327.4,401.6h5.6c0-0.7-0.3-1.3-0.8-1.8c-0.5-0.5-1.2-0.8-1.9-0.8
            c-0.5,0-1,0.1-1.4,0.3c-0.4,0.2-0.7,0.5-0.9,0.8c-0.2,0.3-0.3,0.6-0.4,0.8C327.4,401.3,327.4,401.5,327.4,401.6z"/>
        <path fill="#007EC5" d="M340.9,398.4v0.9h-2.3v5.1c0,0.4,0.1,0.6,0.3,0.8c0.2,0.2,0.5,0.3,0.8,0.3c0.4,0,0.7-0.1,1.2-0.3l0.1,0.9
            c-0.5,0.2-0.9,0.3-1.3,0.3c-0.7,0-1.2-0.2-1.5-0.6c-0.3-0.4-0.5-0.9-0.5-1.5v-5.1h-1.7v-0.9h1.7v-2.3h1v2.3H340.9z"/>
        <polygon fill="#007EC5" points="344.8,406.3 342.3,398.4 343.5,398.4 345.4,405 345.4,405 347.6,398.4 348.6,398.4 350.9,405
            351,405 352.8,398.4 353.9,398.4 351.5,406.3 350.5,406.3 348.1,399.8 348.1,399.8 345.9,406.3 "/>
        <path fill="#007EC5" d="M356.9,405.3c-0.8-0.8-1.2-1.8-1.2-3c0-1.2,0.4-2.2,1.2-3c0.8-0.8,1.8-1.2,3-1.2c1.2,0,2.2,0.4,3,1.2
            c0.8,0.8,1.2,1.8,1.2,3c0,1.2-0.4,2.2-1.2,3c-0.8,0.8-1.8,1.2-3,1.2C358.7,406.5,357.7,406.1,356.9,405.3L356.9,405.3z M357.7,400
            c-0.6,0.6-0.9,1.4-0.9,2.3c0,0.9,0.3,1.7,0.9,2.3c0.6,0.6,1.3,0.9,2.3,0.9c0.9,0,1.7-0.3,2.3-0.9c0.6-0.6,0.9-1.4,0.9-2.3
            c0-0.9-0.3-1.7-0.9-2.3c-0.6-0.6-1.3-0.9-2.3-0.9C359,399.1,358.2,399.4,357.7,400z"/>
        <path fill="#007EC5" d="M367.1,406.3v-5.7c0-0.2,0-0.6,0-1.2c0-0.6,0-0.9,0-1.1h1c0,0.8,0,1.3,0.1,1.4c0.6-1.1,1.4-1.6,2.5-1.6
            c0.2,0,0.4,0,0.6,0.1l-0.1,1c-0.1,0-0.3-0.1-0.4-0.1c-0.9,0-1.5,0.3-1.9,0.8c-0.4,0.5-0.6,1.2-0.6,2v4.3H367.1z"/>
        <polygon fill="#007EC5" points="373.5,406.3 373.5,393.3 374.5,393.3 374.5,402 378.4,398.4 379.9,398.4 375.9,402 380.4,406.3
            378.9,406.3 374.5,402.1 374.5,406.3 "/>
    </g>
    <g>
        <path fill="#007EC5" d="M388.2,404.8c-1.2-1.2-1.8-2.7-1.8-4.6c0-1.9,0.6-3.4,1.8-4.6c1.2-1.2,2.7-1.8,4.5-1.8
            c1.8,0,3.3,0.6,4.5,1.8c1.2,1.2,1.8,2.7,1.8,4.6c0,1.9-0.6,3.4-1.8,4.6c-1.2,1.2-2.7,1.8-4.5,1.8
            C390.8,406.6,389.3,406,388.2,404.8L388.2,404.8z M388.9,396.4c-0.9,1-1.4,2.3-1.4,3.8c0,1.5,0.5,2.8,1.4,3.8
            c0.9,1,2.2,1.5,3.7,1.5c1.6,0,2.8-0.5,3.7-1.5c0.9-1,1.4-2.3,1.4-3.8c0-1.5-0.5-2.8-1.4-3.8c-0.9-1-2.2-1.5-3.7-1.5
            C391.1,394.9,389.9,395.4,388.9,396.4z"/>
        <path fill="#007EC5" d="M401.7,410.2v-11.8h1v1.4h0c0.3-0.5,0.7-0.9,1.3-1.2c0.6-0.3,1.2-0.4,1.8-0.4c1.2,0,2.2,0.4,3,1.2
            c0.8,0.8,1.2,1.8,1.2,3c0,1.2-0.4,2.2-1.2,3c-0.8,0.8-1.8,1.2-3,1.2c-0.6,0-1.3-0.1-1.8-0.4c-0.6-0.3-1-0.7-1.3-1.2h0v5.3H401.7
            L401.7,410.2z M403.6,400c-0.6,0.6-1,1.4-1,2.3c0,0.9,0.3,1.6,1,2.3c0.6,0.6,1.4,0.9,2.3,0.9c0.9,0,1.7-0.3,2.3-0.9
            c0.6-0.6,0.9-1.4,0.9-2.3c0-0.9-0.3-1.7-0.9-2.3c-0.6-0.6-1.3-0.9-2.3-0.9C405,399.1,404.2,399.4,403.6,400z"/>
        <path fill="#007EC5" d="M419.3,404.1l0.8,0.6c-0.8,1.1-1.9,1.7-3.4,1.7c-1.2,0-2.2-0.4-2.9-1.2c-0.7-0.8-1.1-1.8-1.1-3
            c0-1.2,0.4-2.2,1.1-3s1.7-1.2,2.8-1.2c1.2,0,2.1,0.4,2.7,1.1c0.7,0.7,1,1.6,1,2.6v0.7h-6.6c0,0.2,0,0.4,0.1,0.6
            c0.1,0.2,0.1,0.5,0.3,0.8c0.1,0.3,0.3,0.5,0.5,0.8c0.2,0.2,0.5,0.4,0.9,0.6c0.4,0.2,0.8,0.2,1.2,0.2c0.5,0,1-0.1,1.5-0.4
            C418.7,404.9,419,404.6,419.3,404.1L419.3,404.1z M413.7,401.6h5.6c0-0.7-0.3-1.3-0.8-1.8c-0.5-0.5-1.2-0.8-1.9-0.8
            c-0.5,0-1,0.1-1.4,0.3c-0.4,0.2-0.7,0.5-0.9,0.8c-0.2,0.3-0.3,0.6-0.4,0.8C413.7,401.3,413.7,401.5,413.7,401.6z"/>
        <path fill="#007EC5" d="M423.3,406.3v-5.7c0-0.2,0-0.6,0-1.2c0-0.6,0-0.9,0-1.1h1c0,0.8,0,1.3,0.1,1.4c0.6-1.1,1.4-1.6,2.5-1.6
            c0.2,0,0.4,0,0.6,0.1l-0.1,1c-0.1,0-0.3-0.1-0.4-0.1c-0.9,0-1.5,0.3-1.9,0.8c-0.4,0.5-0.6,1.2-0.6,2v4.3H423.3z"/>
        <path fill="#007EC5" d="M435.9,401v1.9c0,1.4,0.1,2.5,0.2,3.3h-1c-0.1-0.4-0.1-0.8-0.1-1.3h0c-0.6,1-1.5,1.5-2.8,1.5
            c-0.8,0-1.4-0.2-2-0.6c-0.5-0.4-0.8-1-0.8-1.8c0-1.8,1.5-2.7,4.4-2.7h1.2V401c0-0.6-0.2-1.1-0.6-1.4c-0.4-0.3-0.9-0.5-1.6-0.5
            c-0.9,0-1.7,0.3-2.4,0.9l-0.6-0.7c0.4-0.3,0.8-0.6,1.4-0.8c0.6-0.2,1.1-0.3,1.6-0.3c1,0,1.8,0.2,2.3,0.7
            C435.6,399.3,435.9,400,435.9,401L435.9,401z M434.9,402.3h-1.1c-1,0-1.8,0.1-2.4,0.4c-0.7,0.3-1,0.7-1,1.4c0,0.5,0.2,0.8,0.5,1.1
            c0.4,0.3,0.8,0.4,1.2,0.4c1,0,1.7-0.3,2.1-0.8c0.4-0.5,0.6-1.2,0.6-1.9V402.3z"/>
        <path fill="#007EC5" d="M443.2,398.4v0.9h-2.3v5.1c0,0.4,0.1,0.6,0.3,0.8c0.2,0.2,0.5,0.3,0.8,0.3c0.4,0,0.7-0.1,1.2-0.3l0.1,0.9
            c-0.5,0.2-0.9,0.3-1.3,0.3c-0.7,0-1.2-0.2-1.5-0.6c-0.3-0.4-0.5-0.9-0.5-1.5v-5.1h-1.7v-0.9h1.7v-2.3h1v2.3H443.2z"/>
        <path fill="#007EC5" d="M445.9,406.3v-7.9h1v7.9H445.9L445.9,406.3z M445.9,395.8c-0.1-0.1-0.2-0.3-0.2-0.5c0-0.2,0.1-0.4,0.2-0.5
            c0.1-0.1,0.3-0.2,0.5-0.2c0.2,0,0.4,0.1,0.5,0.2c0.1,0.1,0.2,0.3,0.2,0.5c0,0.2-0.1,0.4-0.2,0.5c-0.1,0.1-0.3,0.2-0.5,0.2
            C446.2,396,446,395.9,445.9,395.8z"/>
        <path fill="#007EC5" d="M450.6,406.3v-5.7c0-0.2,0-0.6,0-1.2c0-0.6,0-0.9,0-1.1h1c0,0.8,0,1.3,0.1,1.4h0.1
            c0.2-0.5,0.6-0.8,1.1-1.1c0.5-0.3,1-0.5,1.7-0.5c2,0,3,1.1,3,3.4v4.7h-1v-4.7c0-1.7-0.7-2.5-2-2.5c-0.8,0-1.5,0.3-2,0.8
            c-0.5,0.6-0.8,1.4-0.8,2.4v3.9H450.6z"/>
        <path fill="#007EC5" d="M468.7,398.4v7.4c0,0.8-0.1,1.4-0.3,2c-0.2,0.6-0.4,1-0.7,1.3c-0.3,0.3-0.6,0.6-1,0.8
            c-0.4,0.2-0.8,0.3-1.1,0.4c-0.3,0.1-0.7,0.1-1.1,0.1c-0.8,0-1.6-0.1-2.3-0.4c-0.7-0.3-1.3-0.7-1.7-1.2l0.8-0.8
            c0.7,1,1.7,1.5,3.1,1.5c2.1,0,3.2-1.2,3.2-3.6v-1.1h0c-0.6,1-1.6,1.5-3,1.5c-1.2,0-2.2-0.4-3-1.2c-0.8-0.8-1.2-1.7-1.2-2.9
            c0-1.1,0.4-2.1,1.2-2.9c0.8-0.8,1.8-1.2,3-1.2c1.3,0,2.3,0.5,3,1.5h0v-1.3H468.7L468.7,398.4z M466.8,404.4
            c0.6-0.6,0.9-1.3,0.9-2.2c0-0.9-0.3-1.6-0.9-2.2c-0.6-0.6-1.3-0.9-2.2-0.9c-0.9,0-1.6,0.3-2.2,0.9c-0.6,0.6-0.9,1.3-0.9,2.2
            c0,0.9,0.3,1.6,0.9,2.2c0.6,0.6,1.3,0.9,2.2,0.9C465.5,405.3,466.2,405,466.8,404.4z"/>
    </g>
    <g>
        <path fill="#007EC5" d="M476,404.7l1.1-0.7c0.6,1,1.5,1.5,2.8,1.5c0.8,0,1.4-0.2,1.9-0.6c0.5-0.4,0.8-1,0.8-1.7
            c0-0.5-0.2-1-0.5-1.3c-0.3-0.3-0.7-0.6-1.2-0.7c-0.5-0.1-1-0.3-1.5-0.5c-0.5-0.2-1-0.4-1.5-0.6c-0.5-0.2-0.8-0.6-1.2-1
            c-0.3-0.5-0.5-1.1-0.5-1.8c0-1,0.4-1.8,1.1-2.4c0.8-0.6,1.7-0.9,2.8-0.9c1.4,0,2.5,0.5,3.3,1.5l-1,0.7c-0.6-0.8-1.4-1.2-2.4-1.2
            c-0.8,0-1.4,0.2-1.9,0.6c-0.5,0.4-0.8,1-0.8,1.7c0,0.5,0.1,0.9,0.3,1.2c0.2,0.3,0.5,0.6,0.9,0.8c0.4,0.2,0.8,0.3,1.2,0.5
            c0.4,0.1,0.9,0.3,1.3,0.4c0.4,0.2,0.9,0.3,1.2,0.6c0.4,0.2,0.7,0.6,0.9,1c0.2,0.4,0.3,0.9,0.3,1.6c0,1-0.4,1.9-1.1,2.5
            c-0.7,0.6-1.6,0.9-2.7,0.9C478.1,406.6,476.8,406,476,404.7z"/>
        <path fill="#007EC5" d="M492.9,398.4l-4.1,10.3c-0.4,1.1-1.2,1.7-2.2,1.7c-0.3,0-0.6-0.1-1-0.2l0.1-1c0.4,0.1,0.7,0.2,0.9,0.2
            c0.3,0,0.6-0.1,0.8-0.4c0.2-0.2,0.4-0.6,0.5-1l0.7-1.8l-3.2-7.9h1.1l2.6,6.7l2.5-6.7H492.9z"/>
        <path fill="#007EC5" d="M494.4,404.9l0.9-0.6c0.2,0.4,0.5,0.7,0.9,1c0.4,0.2,0.9,0.3,1.4,0.3c0.5,0,0.9-0.1,1.3-0.4
            c0.4-0.3,0.5-0.6,0.5-1.1c0-0.4-0.2-0.7-0.5-0.9c-0.3-0.2-0.7-0.4-1.2-0.5c-0.5-0.1-0.9-0.2-1.4-0.3c-0.5-0.1-0.9-0.3-1.2-0.7
            c-0.3-0.3-0.5-0.8-0.5-1.3c0-0.7,0.3-1.3,0.8-1.7c0.5-0.4,1.2-0.6,1.9-0.6c1.4,0,2.3,0.5,2.8,1.5l-0.9,0.5c-0.4-0.7-1-1.1-1.9-1.1
            c-0.4,0-0.8,0.1-1.1,0.3c-0.4,0.2-0.5,0.5-0.5,0.9c0,0.4,0.2,0.7,0.5,0.9c0.3,0.2,0.7,0.3,1.2,0.4c0.5,0.1,0.9,0.2,1.4,0.3
            c0.5,0.1,0.9,0.3,1.2,0.7c0.3,0.3,0.5,0.8,0.5,1.4c0,0.8-0.3,1.4-0.8,1.8c-0.6,0.4-1.2,0.6-2,0.6
            C496.1,406.5,495,405.9,494.4,404.9z"/>
        <path fill="#007EC5" d="M507.2,398.4v0.9h-2.3v5.1c0,0.4,0.1,0.6,0.3,0.8c0.2,0.2,0.5,0.3,0.8,0.3c0.4,0,0.7-0.1,1.2-0.3l0.1,0.9
            c-0.5,0.2-0.9,0.3-1.3,0.3c-0.7,0-1.2-0.2-1.5-0.6c-0.3-0.4-0.5-0.9-0.5-1.5v-5.1h-1.7v-0.9h1.7v-2.3h1v2.3H507.2z"/>
        <path fill="#007EC5" d="M515.9,404.1l0.8,0.6c-0.8,1.1-1.9,1.7-3.4,1.7c-1.2,0-2.2-0.4-2.9-1.2c-0.7-0.8-1.1-1.8-1.1-3
            c0-1.2,0.4-2.2,1.1-3s1.7-1.2,2.8-1.2c1.2,0,2.1,0.4,2.7,1.1c0.7,0.7,1,1.6,1,2.6v0.7h-6.6c0,0.2,0,0.4,0.1,0.6
            c0.1,0.2,0.1,0.5,0.3,0.8c0.1,0.3,0.3,0.5,0.5,0.8c0.2,0.2,0.5,0.4,0.9,0.6c0.4,0.2,0.8,0.2,1.2,0.2c0.5,0,1-0.1,1.5-0.4
            C515.3,404.9,515.7,404.6,515.9,404.1L515.9,404.1z M510.3,401.6h5.6c0-0.7-0.3-1.3-0.8-1.8c-0.5-0.5-1.2-0.8-1.9-0.8
            c-0.5,0-1,0.1-1.4,0.3c-0.4,0.2-0.7,0.5-0.9,0.8c-0.2,0.3-0.3,0.6-0.4,0.8C510.3,401.3,510.3,401.5,510.3,401.6z"/>
        <path fill="#007EC5" d="M520,406.3v-5.7c0-0.2,0-0.6,0-1.2c0-0.6,0-0.9,0-1.1h1c0,0.8,0,1.3,0.1,1.4h0.1c0.2-0.5,0.6-0.8,1.1-1.1
            c0.5-0.3,1-0.5,1.7-0.5c0.5,0,1,0.1,1.5,0.4c0.4,0.3,0.7,0.7,0.9,1.3c0.2-0.6,0.6-1,1.1-1.3c0.5-0.3,1-0.4,1.6-0.4
            c2,0,3,1.1,3,3.4v4.7h-1v-4.7c0-1.7-0.7-2.5-2-2.5c-0.4,0-0.8,0.1-1.2,0.3c-0.3,0.2-0.6,0.4-0.8,0.7c-0.2,0.3-0.3,0.6-0.4,0.9
            c-0.1,0.3-0.1,0.6-0.1,0.9v4.4h-1v-4.8c0-0.8-0.1-1.3-0.4-1.8c-0.3-0.4-0.7-0.6-1.2-0.6c-0.8,0-1.5,0.3-2,0.8
            c-0.5,0.6-0.8,1.4-0.8,2.4v3.9H520z"/>
    </g>
</g>
<g>

        <linearGradient id="SVGID_5_" gradientUnits="userSpaceOnUse" x1="280.7511" y1="468.8727" x2="530.5958" y2="160.3402" gradientTransform="matrix(-0.9595 0.2818 0.2818 0.9595 742.5177 -113.6192)">
        <stop  offset="0" style="stop-color:#C6262F"/>
        <stop  offset="1.288056e-03" style="stop-color:#C6262F"/>
        <stop  offset="0.3136" style="stop-color:#D64B43"/>
        <stop  offset="0.5951" style="stop-color:#E26255"/>
        <stop  offset="0.8334" style="stop-color:#EA6F61"/>
        <stop  offset="1" style="stop-color:#ED7466"/>
    </linearGradient>
    <path fill-rule="evenodd" clip-rule="evenodd" fill="url(#SVGID_5_)" d="M427.7,300.4c-6.9,0.6-13.1,5-19.2,7.1
        c-18.1,6.2-33.9,9.1-56.5,4.7c24.6,17.2,36.6,13,63.7,0.1c-0.5,0.6-0.7,1.3-1.3,1.9c1.4-0.4,2.4-1.7,3.4-2.2
        c-0.4,0.7-0.9,1.5-1.4,1.9c2.2-0.6,3.7-2.3,5.9-3.9c-2.4,2.1-4.2,5-6,8c-1.5,2.5-3.1,4.8-5.1,6.9c-1,1-1.9,1.9-2.9,2.9
        c-1.4,1.3-2.9,2.5-5.1,2.9c1.7,0.1,3.6-0.3,6.5-1.9c-1.6,2.4-7.1,6.2-9.9,7.2c10.5-2.6,19.2-15.9,25.7-18
        c18.3-5.9,13.8-3.4,27-14.2c1.6-1.3,3-1,5.1-0.8c1.1,0.1,2.1,0.3,3.2,0.5c0.8,0.2,1.4,0.4,2.2,0.8l1.8,0.9c-1.9-4.5-2.3-4.1-5.9-6
        c-2.3-1.3-3.3-3.8-6.2-4.9c-7.1-2.6-11.9,11.7-11.7-5c0.1-8,4.2-14.4,6.4-22c1.1-3.8,2.3-7.6,2.4-11.5c0.1-2.3,0-4.7-0.4-7
        c-2-11.2-8.4-21.5-19.7-24.8c-1-0.3-1.1-0.3-0.9,0c9.6,17.1,7.2,38.3,3.1,54.2C429.9,285.5,426.7,293.2,427.7,300.4z"/>
    <path fill-rule="evenodd" clip-rule="evenodd" fill="#E6E7E8" d="M344.4,311.8c7.1,4.9,15,9.5,23.8,10.7
        c-8.3-0.4-16.6-3.8-27.3-11.3C342,311.4,343.2,311.6,344.4,311.8z"/>
</g>
</svg>
