<?xml version="1.0" encoding="UTF-8" standalone="no"?>
<!-- Created with Inkscape (http://www.inkscape.org/) -->
<svg xmlns="http://www.w3.org/2000/svg" xmlns:cc="http://creativecommons.org/ns#" xmlns:dc="http://purl.org/dc/elements/1.1/" xmlns:inkscape="http://www.inkscape.org/namespaces/inkscape" xmlns:rdf="http://www.w3.org/1999/02/22-rdf-syntax-ns#" xmlns:sodipodi="http://sodipodi.sourceforge.net/DTD/sodipodi-0.dtd" xmlns:svg="http://www.w3.org/2000/svg">
  <symbol id="switch">
    <g id="layer1" inkscape:groupmode="layer" inkscape:label="Layer 1" transform="translate(-344.44812,-517.03149)">
      <path d="m 389.9165,532.15849 -44.64875,0 0,14.495 44.64875,0 0,-14.495 z" id="path24009" inkscape:connector-curvature="0" style="fill-opacity:1;fill-rule:nonzero;stroke:currentColor;stroke-width:0.40000001"/>
      <g id="g24011" transform="matrix(1.25,0,0,-1.25,345.15125,532.23224)">
        <path d="m 0,0 14.428,11.694 33.33,0 L 35.779,0 0,0 z" id="path24013" inkscape:connector-curvature="0" style="fill-opacity:1;fill-rule:nonzero;stroke:none"/>
      </g>
      <g id="g24015" transform="matrix(1.25,0,0,-1.25,345.15125,532.23224)">
        <path d="m 0,0 14.428,11.694 33.33,0 L 35.779,0 0,0 z" id="path24017" inkscape:connector-curvature="0" style="fill:none;stroke:currentColor;stroke-width:0.40000001;stroke-linecap:butt;stroke-linejoin:miter;stroke-miterlimit:4;stroke-opacity:1;stroke-dasharray:none"/>
      </g>
      <g id="g24019" transform="matrix(1.25,0,0,-1.25,389.8925,547.10962)">
        <path d="M 0,0 11.932,12.892 11.939,23.575 0,11.919 0,0 z" id="path24021" inkscape:connector-curvature="0" style="fill-opacity:1;fill-rule:nonzero;stroke:none"/>
      </g>
      <g id="g24023" transform="matrix(1.25,0,0,-1.25,389.8925,547.10962)">
        <path d="M 0,0 11.932,12.892 11.939,23.575 0,11.919 0,0 z" id="path24025" inkscape:connector-curvature="0" style="fill:none;stroke:currentColor;stroke-width:0.40000001;stroke-linecap:butt;stroke-linejoin:miter;stroke-miterlimit:4;stroke-opacity:1;stroke-dasharray:none"/>
      </g>
      <g id="g24027" transform="matrix(1.25,0,0,-1.25,371.32312,528.42974)">
        <path d="m 0,0 -0.691,-0.568 -8.911,0 -0.886,-0.888 -2.414,1.052 4.853,1.389 L -8.906,0 0,0 z" id="path24029" inkscape:connector-curvature="0" style="fill:currentColor;fill-opacity:1;fill-rule:nonzero;stroke:none"/>
      </g>
      <g id="g24031" transform="matrix(1.25,0,0,-1.25,380.07312,522.96099)">
        <path d="m 0,0 -0.691,-0.568 -8.911,0 -0.886,-0.888 -2.414,1.052 4.853,1.389 L -8.906,0 0,0 z" id="path24033" inkscape:connector-curvature="0" style="fill:currentColor;fill-opacity:1;fill-rule:nonzero;stroke:none"/>
      </g>
      <g id="g24035" transform="matrix(1.25,0,0,-1.25,373.28837,526.49738)">
        <path d="m 0,0 0.691,0.569 8.913,0 L 10.49,1.456 12.904,0.405 8.049,-0.984 8.908,0 0,0 z" id="path24037" inkscape:connector-curvature="0" style="fill:currentColor;fill-opacity:1;fill-rule:nonzero;stroke:none"/>
      </g>
      <g id="g24039" transform="matrix(1.25,0,0,-1.25,379.06962,521.02863)">
        <path d="m 0,0 0.691,0.569 8.913,0 L 10.49,1.456 12.904,0.405 8.049,-0.984 8.908,0 0,0 z" id="path24041" inkscape:connector-curvature="0" style="fill:currentColor;fill-opacity:1;fill-rule:nonzero;stroke:none"/>
      </g>
    </g>
  </symbol>
  <symbol id="router">
    <g id="layer1" inkscape:groupmode="layer" inkscape:label="Layer 1" transform="translate(-351.74132,-516.62992)">
      <g id="g18775" transform="matrix(1.25,0,0,-1.25,397.99132,525.81444)">
        <path d="m 0,0 c 0,-3.95 -8.235,-7.152 -18.393,-7.152 -10.158,0 -18.393,3.202 -18.393,7.152 l 0,-10.478 c 0,-3.948 8.235,-7.151 18.393,-7.151 10.158,0 18.393,3.203 18.393,7.151 L 0,0 z" id="path18777" inkscape:connector-curvature="0" style="fill-opacity:1;fill-rule:nonzero;stroke:none"/>
      </g>
      <g id="g18779" transform="matrix(1.25,0,0,-1.25,397.99132,525.81444)">
        <path d="m 0,0 c 0,-3.95 -8.235,-7.152 -18.393,-7.152 -10.158,0 -18.393,3.202 -18.393,7.152 l 0,-10.478 c 0,-3.948 8.235,-7.151 18.393,-7.151 10.158,0 18.393,3.203 18.393,7.151 L 0,0 z" id="path18781" inkscape:connector-curvature="0" style="fill:none;stroke:currentColor;stroke-width:0.40000001;stroke-linecap:butt;stroke-linejoin:miter;stroke-miterlimit:4;stroke-opacity:1;stroke-dasharray:none"/>
      </g>
      <g id="g18783" transform="matrix(1.25,0,0,-1.25,374.99992,534.75492)">
        <path d="m 0,0 c 10.158,0 18.393,3.202 18.393,7.152 0,3.952 -8.235,7.153 -18.393,7.153 -10.158,0 -18.393,-3.201 -18.393,-7.153 C -18.393,3.202 -10.158,0 0,0" id="path18785" inkscape:connector-curvature="0" style="fill-opacity:1;fill-rule:nonzero;stroke:none"/>
      </g>
      <g id="g18787" transform="matrix(1.25,0,0,-1.25,374.99992,534.75492)">
        <path d="m 0,0 c 10.158,0 18.393,3.202 18.393,7.152 0,3.952 -8.235,7.153 -18.393,7.153 -10.158,0 -18.393,-3.201 -18.393,-7.153 C -18.393,3.202 -10.158,0 0,0 z" id="path18789" inkscape:connector-curvature="0" style="fill:none;stroke:currentColor;stroke-width:0.40000001;stroke-linecap:butt;stroke-linejoin:miter;stroke-miterlimit:4;stroke-opacity:1;stroke-dasharray:none"/>
      </g>
      <g id="g18791" transform="matrix(1.25,0,0,-1.25,369.75031,522.31831)">
        <path d="m 0,0 1.518,-2.278 -5.742,-1.327 1.255,1.043 -8.875,1.518 2.227,1.669 8.563,-1.45 L 0,0 z" id="path18793" inkscape:connector-curvature="0" style="fill:currentColor;fill-opacity:1;fill-rule:nonzero;stroke:none"/>
      </g>
      <g id="g18795" transform="matrix(1.25,0,0,-1.25,379.85043,529.22393)">
        <path d="M 0,0 -1.036,2.35 4.143,3.384 3.245,2.579 11.878,1.104 9.807,-0.553 1.225,1.06 0,0 z" id="path18797" inkscape:connector-curvature="0" style="fill:currentColor;fill-opacity:1;fill-rule:nonzero;stroke:none"/>
      </g>
      <g id="g18799" transform="matrix(1.25,0,0,-1.25,376.31043,520.76318)">
        <path d="M 0,0 5.802,1.588 5.87,-0.898 4.42,-0.622 1.589,-2.972 -1.113,-2.576 1.809,-0.279 0,0 z" id="path18801" inkscape:connector-curvature="0" style="fill:currentColor;fill-opacity:1;fill-rule:nonzero;stroke:none"/>
      </g>
      <g id="g18803" transform="matrix(1.25,0,0,-1.25,373.20244,531.90095)">
        <path d="M 0,0 -5.525,-1.035 -5.732,1.52 -4.144,1.175 -1.103,3.771 1.588,3.315 -1.658,0.483 0,0 z" id="path18805" inkscape:connector-curvature="0" style="fill:currentColor;fill-opacity:1;fill-rule:nonzero;stroke:none"/>
      </g>
    </g>
  </symbol>
  <symbol id="roadm">
    <g id="layer1" inkscape:groupmode="layer" inkscape:label="Layer 1" transform="translate(-352.14937,-517.55019)">
      <g id="g23883" transform="matrix(1.25,0,0,-1.25,397.44718,526.34356)">
        <path d="m 0,0 0,-9.5 -8.725,-6.977 -18.127,0 -9.064,6.977 0,9.5" id="path23885" inkscape:connector-curvature="0" style="fill-opacity:1;fill-rule:nonzero;stroke:currentColor;stroke-width:0.40000001;stroke-linecap:butt;stroke-linejoin:miter;stroke-miterlimit:4;stroke-opacity:1;stroke-dasharray:none"/>
      </g>
      <g id="g23887" transform="matrix(1.25,0,0,-1.25,386.32906,517.78456)">
        <path d="m 0,0 -17.787,0 -9.234,-6.847 9.064,-6.977 18.127,0 8.725,6.977 L 0,0 z" id="path23889" inkscape:connector-curvature="0" style="fill-opacity:1;fill-rule:nonzero;stroke:none"/>
      </g>
      <g id="g23891" transform="matrix(1.25,0,0,-1.25,386.32906,517.78456)">
        <path d="m 0,0 -17.787,0 -9.234,-6.847 9.064,-6.977 18.127,0 8.725,6.977 L 0,0 z" id="path23893" inkscape:connector-curvature="0" style="fill:none;stroke:currentColor;stroke-width:0.40000001;stroke-linecap:butt;stroke-linejoin:miter;stroke-miterlimit:4;stroke-opacity:1;stroke-dasharray:none"/>
      </g>
      <g id="g23895" transform="matrix(1.25,0,0,-1.25,370.5857,523.05858)">
        <path d="m 0,0 1.384,-2.076 -5.235,-1.21 1.145,0.952 -6.697,1.421 2.03,1.522 6.412,-1.361 L 0,0 z" id="path23897" inkscape:connector-curvature="0" style="fill:currentColor;fill-opacity:1;fill-rule:nonzero;stroke:none"/>
      </g>
      <g id="g23899" transform="matrix(1.25,0,0,-1.25,379.79093,529.35194)">
        <path d="M 0,0 -0.945,2.14 3.777,3.084 2.959,2.351 9.951,1.152 8.064,-0.36 1.117,0.965 0,0 z" id="path23901" inkscape:connector-curvature="0" style="fill:currentColor;fill-opacity:1;fill-rule:nonzero;stroke:none"/>
      </g>
      <g id="g23903" transform="matrix(1.25,0,0,-1.25,377.03218,521.01569)">
        <path d="M 0,0 5.289,1.448 5.352,-0.818 4.029,-0.566 1.449,-2.707 -1.014,-2.347 1.65,-0.255 0,0 z" id="path23905" inkscape:connector-curvature="0" style="fill:currentColor;fill-opacity:1;fill-rule:nonzero;stroke:none"/>
      </g>
      <g id="g23907" transform="matrix(1.25,0,0,-1.25,372.99894,532.36957)">
        <path d="M 0,0 -5.037,-0.944 -5.224,1.385 -3.777,1.071 -1.006,3.44 1.447,3.023 -1.512,0.441 0,0 z" id="path23909" inkscape:connector-curvature="0" style="fill:currentColor;fill-opacity:1;fill-rule:nonzero;stroke:none"/>
      </g>
      <g id="g23911" transform="matrix(1.25,0,0,-1.25,386.49758,546.80069)">
        <path d="M 0,0 0,9.389 M -18.25,0 l 0,9.389" id="path23913" inkscape:connector-curvature="0" style="fill:none;stroke:currentColor;stroke-width:0.40000001;stroke-linecap:butt;stroke-linejoin:miter;stroke-miterlimit:4;stroke-opacity:1;stroke-dasharray:none"/>
      </g>
      <g id="g25718" transform="matrix(1.25,0,0,-1.25,397.44718,526.34356)">
        <path d="m 0,0 0,-9.5 -8.725,-6.977 -18.127,0 -9.064,6.977 0,9.5" id="path25720" inkscape:connector-curvature="0" style="fill-opacity:1;fill-rule:nonzero;stroke:currentColor;stroke-width:0.40000001;stroke-linecap:butt;stroke-linejoin:miter;stroke-miterlimit:4;stroke-opacity:1;stroke-dasharray:none"/>
      </g>
      <g id="g25722" transform="matrix(1.25,0,0,-1.25,386.32906,517.78456)">
        <path d="m 0,0 -17.787,0 -9.234,-6.847 9.064,-6.977 18.127,0 8.725,6.977 L 0,0 z" id="path25724" inkscape:connector-curvature="0" style="fill-opacity:1;fill-rule:nonzero;stroke:none"/>
      </g>
      <g id="g25726" transform="matrix(1.25,0,0,-1.25,386.32906,517.78456)">
        <path d="m 0,0 -17.787,0 -9.234,-6.847 9.064,-6.977 18.127,0 8.725,6.977 L 0,0 z" id="path25728" inkscape:connector-curvature="0" style="fill:none;stroke:currentColor;stroke-width:0.40000001;stroke-linecap:butt;stroke-linejoin:miter;stroke-miterlimit:4;stroke-opacity:1;stroke-dasharray:none"/>
      </g>
      <g id="g25730" transform="matrix(1.25,0,0,-1.25,370.5857,523.05858)">
        <path d="m 0,0 1.384,-2.076 -5.235,-1.21 1.145,0.952 -6.697,1.421 2.03,1.522 6.412,-1.361 L 0,0 z" id="path25732" inkscape:connector-curvature="0" style="fill:currentColor;fill-opacity:1;fill-rule:nonzero;stroke:none"/>
      </g>
      <g id="g25734" transform="matrix(1.25,0,0,-1.25,379.79093,529.35194)">
        <path d="M 0,0 -0.945,2.14 3.777,3.084 2.959,2.351 9.951,1.152 8.064,-0.36 1.117,0.965 0,0 z" id="path25736" inkscape:connector-curvature="0" style="fill:currentColor;fill-opacity:1;fill-rule:nonzero;stroke:none"/>
      </g>
      <g id="g25738" transform="matrix(1.25,0,0,-1.25,377.03218,521.01569)">
        <path d="M 0,0 5.289,1.448 5.352,-0.818 4.029,-0.566 1.449,-2.707 -1.014,-2.347 1.65,-0.255 0,0 z" id="path25740" inkscape:connector-curvature="0" style="fill:currentColor;fill-opacity:1;fill-rule:nonzero;stroke:none"/>
      </g>
      <g id="g25742" transform="matrix(1.25,0,0,-1.25,372.99894,532.36957)">
        <path d="M 0,0 -5.037,-0.944 -5.224,1.385 -3.777,1.071 -1.006,3.44 1.447,3.023 -1.512,0.441 0,0 z" id="path25744" inkscape:connector-curvature="0" style="fill:currentColor;fill-opacity:1;fill-rule:nonzero;stroke:none"/>
      </g>
      <g id="g25746" transform="matrix(1.25,0,0,-1.25,386.49758,546.80069)">
        <path d="M 0,0 0,9.389 M -18.25,0 l 0,9.389" id="path25748" inkscape:connector-curvature="0" style="fill:none;stroke:currentColor;stroke-width:0.40000001;stroke-linecap:butt;stroke-linejoin:miter;stroke-miterlimit:4;stroke-opacity:1;stroke-dasharray:none"/>
      </g>
    </g>
  </symbol>
  <symbol id="endstation">
    <g id="layer1" inkscape:groupmode="layer" inkscape:label="Layer 1" transform="translate(-361.79125,-513.72074)">
      <g id="g19723" transform="matrix(1.25,0,0,-1.25,381.81625,520.11362)">
        <path d="m 0,0 -15.82,0 0,-24.512 15.82,0" id="path19725" inkscape:connector-curvature="0" style="fill-opacity:1;fill-rule:nonzero;stroke:currentColor;stroke-width:0.40000001;stroke-linecap:round;stroke-linejoin:round;stroke-miterlimit:4;stroke-opacity:1;stroke-dasharray:none"/>
      </g>
      <g id="g19727" transform="matrix(1.25,0,0,-1.25,381.81625,550.75074)">
        <path d="m 0,0 4.914,4.912 0,24.512 -14.445,0 L -15.82,24.51 0,24.51 0,0 z" id="path19729" inkscape:connector-curvature="0" style="fill-opacity:1;fill-rule:nonzero;stroke:none"/>
      </g>
      <g id="g19731" transform="matrix(1.25,0,0,-1.25,381.81625,550.75074)">
        <path d="m 0,0 4.914,4.912 0,24.512 -14.445,0 L -15.82,24.51 0,24.51 0,0 z" id="path19733" inkscape:connector-curvature="0" style="fill:none;stroke:currentColor;stroke-width:0.40000001;stroke-linecap:round;stroke-linejoin:round;stroke-miterlimit:4;stroke-opacity:1;stroke-dasharray:none"/>
      </g>
      <g id="g19735" transform="matrix(1.25,0,0,-1.25,381.81625,520.11362)">
        <path d="M 0,0 4.914,4.914" id="path19737" inkscape:connector-curvature="0" style="fill-opacity:1;fill-rule:nonzero;stroke:currentColor;stroke-width:0.40000001;stroke-linecap:round;stroke-linejoin:round;stroke-miterlimit:4;stroke-opacity:1;stroke-dasharray:none"/>
      </g>
      <g id="g19739" transform="matrix(1.25,0,0,-1.25,371.85774,520.11362)">
        <path d="M 0,0 0,-24.512" id="path19741" inkscape:connector-curvature="0" style="fill-opacity:1;fill-rule:nonzero;stroke:currentColor;stroke-width:0.40000001;stroke-linecap:round;stroke-linejoin:round;stroke-miterlimit:4;stroke-opacity:1;stroke-dasharray:none"/>
      </g>
      <g id="g19743" transform="matrix(1.25,0,0,-1.25,372.17024,520.11362)">
        <path d="M 0,0 5.346,4.914" id="path19745" inkscape:connector-curvature="0" style="fill-opacity:1;fill-rule:nonzero;stroke:none"/>
      </g>
      <path d="m 379.91712,544.47137 -6.64125,0 0,4.0625 6.64125,0 0,-4.0625 z m -9.52375,0 -6.64125,0 0,4.0625 6.64125,0 0,-4.0625 z m 9.52375,-6.5625 -6.64125,0 0,4.0625 6.64125,0 0,-4.0625 z m -9.52375,0 -6.64125,0 0,4.0625 6.64125,0 0,-4.0625 z m 9.52375,-15 -6.64125,0 0,4.0625 6.64125,0 0,-4.0625 z m -9.52375,0 -6.64125,0 0,4.0625 6.64125,0 0,-4.0625 z m 1.7775,-2.795 6.68125,-6.1425" id="path19747" inkscape:connector-curvature="0" style="fill:none;stroke:currentColor;stroke-width:0.5;stroke-linecap:round;stroke-linejoin:round;stroke-miterlimit:4;stroke-opacity:1;stroke-dasharray:none"/>
    </g>
  </symbol>
  <symbol id="bgpSpeaker">
    <g id="layer1" inkscape:groupmode="layer" inkscape:label="Layer 1" transform="translate(-355.47362,-514.96093)">
      <path d="m 355.72362,519.29593 34.56875,0 0,30.2175 -34.56875,0 0,-30.2175 z" id="path5104" inkscape:connector-curvature="0" style="fill-opacity:1;fill-rule:nonzero;stroke:none"/>
      <path d="m 355.72362,519.29593 34.57,0 0,30.2175 -34.57,0 0,-30.2175 z" id="path5106" inkscape:connector-curvature="0" style="fill:none;stroke:currentColor;stroke-width:0.5;stroke-linecap:butt;stroke-linejoin:miter;stroke-miterlimit:4;stroke-opacity:1;stroke-dasharray:none"/>
      <g id="g5108" transform="matrix(1.25,0,0,-1.25,359.70763,515.2113)">
        <path d="m 0,0 -3.187,-3.268 27.656,0 L 27.655,0 0,0 z" id="path5110" inkscape:connector-curvature="0" style="fill-opacity:1;fill-rule:nonzero;stroke:none"/>
      </g>
      <g id="g5112" transform="matrix(1.25,0,0,-1.25,359.70763,515.2113)">
        <path d="m 0,0 -3.187,-3.268 27.656,0 L 27.655,0 0,0 z" id="path5114" inkscape:connector-curvature="0" style="fill:none;stroke:currentColor;stroke-width:0.40000001;stroke-linecap:butt;stroke-linejoin:miter;stroke-miterlimit:4;stroke-opacity:1;stroke-dasharray:none"/>
      </g>
      <g id="g5116" transform="matrix(1.25,0,0,-1.25,394.27674,545.42854)">
        <path d="m 0,0 0,24.174 -3.186,-3.268 0,-24.174 L 0,0 z" id="path5118" inkscape:connector-curvature="0" style="fill-opacity:1;fill-rule:nonzero;stroke:none"/>
      </g>
      <path d="m 387.49987,522.07593  z m 6.77625,23.3525 0,-30.2175 -3.9825,4.085 0,30.2175 3.9825,-4.085 z" id="path5120" inkscape:connector-curvature="0" style="fill:none;stroke:currentColor;stroke-width:0.5;stroke-linecap:butt;stroke-linejoin:miter;stroke-miterlimit:4;stroke-opacity:1;stroke-dasharray:none"/>
      <g id="g5122" transform="matrix(1.25,0,0,-1.25,385.85025,531.2343)">
        <path d="m 0,0 c 0,-2.152 -4.486,-3.896 -10.02,-3.896 -5.533,0 -10.019,1.744 -10.019,3.896 l 0,-5.707 c 0,-2.152 4.486,-3.897 10.019,-3.897 5.534,0 10.02,1.745 10.02,3.897 L 0,0 z" id="path5124" inkscape:connector-curvature="0" style="fill-opacity:1;fill-rule:nonzero;stroke:none"/>
      </g>
      <g id="g5126" transform="matrix(1.25,0,0,-1.25,385.85025,531.2343)">
        <path d="m 0,0 c 0,-2.152 -4.486,-3.896 -10.02,-3.896 -5.533,0 -10.019,1.744 -10.019,3.896 l 0,-5.707 c 0,-2.152 4.486,-3.897 10.019,-3.897 5.534,0 10.02,1.745 10.02,3.897 L 0,0 z" id="path5128" inkscape:connector-curvature="0" style="fill:none;stroke:currentColor;stroke-width:0.40000001;stroke-linecap:butt;stroke-linejoin:miter;stroke-miterlimit:4;stroke-opacity:1;stroke-dasharray:none"/>
      </g>
      <g id="g5130" transform="matrix(1.25,0,0,-1.25,373.32524,536.10479)">
        <path d="M 0,0 C 5.534,0 10.02,1.744 10.02,3.896 10.02,6.049 5.534,7.793 0,7.793 -5.533,7.793 -10.019,6.049 -10.019,3.896 -10.019,1.744 -5.533,0 0,0" id="path5132" inkscape:connector-curvature="0" style="fill-opacity:1;fill-rule:nonzero;stroke:none"/>
      </g>
      <g id="g5134" transform="matrix(1.25,0,0,-1.25,373.32524,536.10479)">
        <path d="M 0,0 C 5.534,0 10.02,1.744 10.02,3.896 10.02,6.049 5.534,7.793 0,7.793 -5.533,7.793 -10.019,6.049 -10.019,3.896 -10.019,1.744 -5.533,0 0,0 z" id="path5136" inkscape:connector-curvature="0" style="fill:none;stroke:currentColor;stroke-width:0.40000001;stroke-linecap:butt;stroke-linejoin:miter;stroke-miterlimit:4;stroke-opacity:1;stroke-dasharray:none"/>
      </g>
      <g id="g5138" transform="matrix(1.25,0,0,-1.25,370.46387,529.32993)">
        <path d="m 0,0 0.828,-1.241 -3.128,-0.723 0.683,0.569 -4.834,0.828 1.213,0.908 4.665,-0.79 L 0,0 z" id="path5140" inkscape:connector-curvature="0" style="fill:currentColor;fill-opacity:1;fill-rule:nonzero;stroke:none"/>
      </g>
      <g id="g5142" transform="matrix(1.25,0,0,-1.25,375.96798,533.09218)">
        <path d="M 0,0 -0.565,1.279 2.257,1.844 1.767,1.404 6.47,0.602 5.341,-0.301 0.668,0.577 0,0 z" id="path5144" inkscape:connector-curvature="0" style="fill:currentColor;fill-opacity:1;fill-rule:nonzero;stroke:none"/>
      </g>
      <g id="g5146" transform="matrix(1.25,0,0,-1.25,374.03937,528.48281)">
        <path d="M 0,0 3.16,0.865 3.198,-0.488 2.408,-0.339 0.865,-1.617 -0.606,-1.403 0.986,-0.151 0,0 z" id="path5148" inkscape:connector-curvature="0" style="fill:currentColor;fill-opacity:1;fill-rule:nonzero;stroke:none"/>
      </g>
      <g id="g5150" transform="matrix(1.25,0,0,-1.25,372.34687,534.54968)">
        <path d="M 0,0 -3.01,-0.564 -3.123,0.828 -2.258,0.64 -0.601,2.055 0.865,1.807 -0.903,0.264 0,0 z" id="path5152" inkscape:connector-curvature="0" style="fill:currentColor;fill-opacity:1;fill-rule:nonzero;stroke:none"/>
      </g>
    </g>
  </symbol>
</svg>